<svg xmlns="http://www.w3.org/2000/svg" viewBox="0 0 560 300" font-family="ui-sans-serif,system-ui,sans-serif"><rect width="560" height="300" rx="14" fill="#11151b"/><text x="20" y="30" fill="#e6edf3" font-size="16" font-weight="600">C7</text><text x="48" y="30" fill="#5b6675" font-size="13" font-family="monospace">C E G A#</text><text x="155" y="56" fill="#94a3b8" font-size="12" text-anchor="middle">circle of fifths · root-aware</text><circle cx="155" cy="160" r="80" fill="none" stroke="#1c2129" stroke-width="1"/><line x1="155" y1="160" x2="155.0" y2="80.0" stroke="#2a3340" stroke-width="1"/><circle cx="155.0" cy="80.0" r="7" fill="hsl(0 62% 54%)" opacity="1" stroke="#11151b" stroke-width="1.3"/><text x="155.0" y="69.0" fill="#94a3b8" font-size="10" text-anchor="middle">C</text><line x1="155" y1="160" x2="195.0" y2="90.7" stroke="#2a3340" stroke-width="1"/><circle cx="195.0" cy="90.7" r="7" fill="hsl(30 62% 54%)" opacity="1" stroke="#11151b" stroke-width="1.3"/><text x="202.0" y="81.6" fill="#94a3b8" font-size="10" text-anchor="middle">G</text><circle cx="224.3" cy="120.0" r="3.5" fill="hsl(60 62% 40%)" opacity="0.42"/><circle cx="235.0" cy="160.0" r="3.5" fill="hsl(90 62% 40%)" opacity="0.42"/><line x1="155" y1="160" x2="224.3" y2="200.0" stroke="#2a3340" stroke-width="1"/><circle cx="224.3" cy="200.0" r="7" fill="hsl(120 62% 54%)" opacity="1" stroke="#11151b" stroke-width="1.3"/><text x="236.4" y="210.0" fill="#94a3b8" font-size="10" text-anchor="middle">E</text><circle cx="195.0" cy="229.3" r="3.5" fill="hsl(150 62% 40%)" opacity="0.42"/><circle cx="155.0" cy="240.0" r="3.5" fill="hsl(180 62% 40%)" opacity="0.42"/><circle cx="115.0" cy="229.3" r="3.5" fill="hsl(210 62% 40%)" opacity="0.42"/><circle cx="85.7" cy="200.0" r="3.5" fill="hsl(240 62% 40%)" opacity="0.42"/><circle cx="75.0" cy="160.0" r="3.5" fill="hsl(270 62% 40%)" opacity="0.42"/><line x1="155" y1="160" x2="85.7" y2="120.0" stroke="#2a3340" stroke-width="1"/><circle cx="85.7" cy="120.0" r="7" fill="hsl(300 62% 54%)" opacity="1" stroke="#11151b" stroke-width="1.3"/><text x="73.6" y="116.0" fill="#94a3b8" font-size="10" text-anchor="middle">A#</text><circle cx="115.0" cy="90.7" r="3.5" fill="hsl(330 62% 40%)" opacity="0.42"/><line x1="155" y1="160" x2="165.0" y2="122.7" stroke="#94a3b8" stroke-width="1.2" stroke-dasharray="3 2"/><circle cx="165.0" cy="122.7" r="9" fill="hsl(15 62% 52%)" stroke="#e6edf3" stroke-width="1.4"/><circle cx="155" cy="160" r="1.6" fill="#5b6675"/><text x="405" y="56" fill="#94a3b8" font-size="12" text-anchor="middle">interval content · root-blind</text><circle cx="405" cy="160" r="76" fill="none" stroke="#1c2129" stroke-width="1"/><circle cx="405.0" cy="84.0" r="3" fill="hsl(0 62% 54%)" opacity="0.3"/><line x1="405" y1="160" x2="477.3" y2="136.5" stroke="#2a3340" stroke-width="1.4"/><circle cx="477.3" cy="136.5" r="6" fill="hsl(72 62% 54%)" opacity="1"/><line x1="405" y1="160" x2="449.7" y2="221.5" stroke="#2a3340" stroke-width="2"/><circle cx="449.7" cy="221.5" r="8" fill="hsl(144 62% 54%)" opacity="1"/><line x1="405" y1="160" x2="360.3" y2="221.5" stroke="#2a3340" stroke-width="1.4"/><circle cx="360.3" cy="221.5" r="6" fill="hsl(216 62% 54%)" opacity="1"/><line x1="405" y1="160" x2="332.7" y2="136.5" stroke="#2a3340" stroke-width="1.4"/><circle cx="332.7" cy="136.5" r="6" fill="hsl(288 62% 54%)" opacity="1"/><circle cx="405" cy="160" r="5.4" fill="none" stroke="#5b6675" stroke-width="1.1" stroke-dasharray="2.5 2"/><line x1="405" y1="160" x2="412.4" y2="182.9" stroke="#94a3b8" stroke-width="1.2" stroke-dasharray="3 2"/><circle cx="412.4" cy="182.9" r="9" fill="hsl(162 62% 52%)" stroke="#e6edf3" stroke-width="1.4"/></svg>